<mxfile host="app.diagrams.net" modified="2024-01-20T12:25:04.590Z" agent="Mozilla/5.0 (X11; Linux x86_64) AppleWebKit/537.36 (KHTML, like Gecko) Chrome/120.0.0.0 Safari/537.36" etag="ZwSL7nwPMKFdZRFgoAJQ" version="22.1.21" type="github">
  <diagram name="Page-1" id="daO71cZO7_z_70Y26KHo">
    <mxGraphModel dx="880" dy="470" grid="1" gridSize="10" guides="1" tooltips="1" connect="1" arrows="1" fold="1" page="1" pageScale="1" pageWidth="827" pageHeight="1169" math="0" shadow="0">
      <root>
        <mxCell id="0" />
        <mxCell id="1" parent="0" />
        <mxCell id="se4Sdfj2kMBtf5sA1yPb-1" value="Clients" style="ellipse;whiteSpace=wrap;html=1;fillColor=#3399FF;" vertex="1" parent="1">
          <mxGeometry x="10" y="60" width="120" height="80" as="geometry" />
        </mxCell>
        <mxCell id="se4Sdfj2kMBtf5sA1yPb-2" value="65.2.80.99:5000/&lt;br&gt;Load Balancer&lt;br&gt;{HaProxy)" style="rounded=0;whiteSpace=wrap;html=1;fillColor=#33FF33;" vertex="1" parent="1">
          <mxGeometry x="330" y="150" width="120" height="80" as="geometry" />
        </mxCell>
        <mxCell id="se4Sdfj2kMBtf5sA1yPb-3" value="3.110.218.131:80&lt;br&gt;&lt;br&gt;WebServer1" style="whiteSpace=wrap;html=1;aspect=fixed;fillColor=#FF8000;" vertex="1" parent="1">
          <mxGeometry x="180" y="350" width="110" height="110" as="geometry" />
        </mxCell>
        <mxCell id="se4Sdfj2kMBtf5sA1yPb-5" value="13.233.122.88:80&lt;br&gt;&lt;br&gt;WebServer2" style="whiteSpace=wrap;html=1;aspect=fixed;fillColor=#FF8000;" vertex="1" parent="1">
          <mxGeometry x="520" y="350" width="110" height="110" as="geometry" />
        </mxCell>
        <mxCell id="se4Sdfj2kMBtf5sA1yPb-8" value="" style="endArrow=classic;html=1;rounded=0;entryX=0.35;entryY=-0.083;entryDx=0;entryDy=0;entryPerimeter=0;" edge="1" parent="1" target="se4Sdfj2kMBtf5sA1yPb-2">
          <mxGeometry width="50" height="50" relative="1" as="geometry">
            <mxPoint x="130" y="90" as="sourcePoint" />
            <mxPoint x="180" y="40" as="targetPoint" />
          </mxGeometry>
        </mxCell>
        <mxCell id="se4Sdfj2kMBtf5sA1yPb-9" value="" style="endArrow=classic;html=1;rounded=0;entryX=0.842;entryY=1.017;entryDx=0;entryDy=0;entryPerimeter=0;" edge="1" parent="1" target="se4Sdfj2kMBtf5sA1yPb-2">
          <mxGeometry width="50" height="50" relative="1" as="geometry">
            <mxPoint x="535" y="350" as="sourcePoint" />
            <mxPoint x="585" y="300" as="targetPoint" />
          </mxGeometry>
        </mxCell>
        <mxCell id="se4Sdfj2kMBtf5sA1yPb-10" value="" style="endArrow=classic;html=1;rounded=0;entryX=0.25;entryY=1;entryDx=0;entryDy=0;" edge="1" parent="1" target="se4Sdfj2kMBtf5sA1yPb-2">
          <mxGeometry width="50" height="50" relative="1" as="geometry">
            <mxPoint x="240" y="350" as="sourcePoint" />
            <mxPoint x="290" y="300" as="targetPoint" />
          </mxGeometry>
        </mxCell>
      </root>
    </mxGraphModel>
  </diagram>
</mxfile>
